:SAMPLES-PER-SECOND 30
:FULLY-SPECIFIED
:DEGREES
181
root  -5.78392 40.0576 17.9179 171.828 70.8983 171.822
RightUpLeg  -6.7677 -9.58913 -9.90402
RightLeg  1.75814 -2.02939 0.796887
RightFoot  4.36764 -2.25209 16.4418
RightToes  -1.74624e-010 0 -3.6325e-017
Spine  5.88209 -7.07655 -18.9353
Spine1  -1.75832 -10.4019 12.7675
HEad  5.72979 50.6661 1.01571
LeftShoulder1  0.00892646 2.89088 7.74992
LeftArm  -46.5426 -52.0056 -31.2817
LeftForeArm  -57.6274 -52.5673 -17.5715
LeftHand  -0.0535014 5.15739 25.7858
RightShoulder  0.420391 0.980567 1.05197
RightArm  7.30353 -11.3056 45.3124
RightForeArm  -1.56639 68.5704 31.5613
RightHand  -0.206218 -1.73906 -6.34886
LeftUpLeg  8.07548 3.26505 -0.11161
LeftLeg  6.68198 14.8844 -0.682818
LeftFoot  -7.39316 0.290045 -7.13057
LeftToes  -5.82109e-011 1.10366e-010 -8.03124e-011
182
root  -5.64437 40.089 17.7778 170.7 71.8881 169.731
RightUpLeg  -7.42465 -9.87135 -10.3956
RightLeg  1.25952 -0.838217 0.825547
RightFoot  4.06316 -2.39951 17.8154
RightToes  -1.74624e-010 0 -3.6325e-017
Spine  6.3069 -7.38254 -19.1671
Spine1  -4.49608 -10.5167 13.6963
HEad  5.71615 51.1889 1.39564
LeftShoulder1  -0.00412322 2.46295 10.1417
LeftArm  -49.5065 -48.949 -25.0912
LeftForeArm  -55.3325 -52.9869 -17.8007
LeftHand  -0.0718761 5.06705 24.9144
RightShoulder  0.27891 0.343941 -1.38651
RightArm  5.95316 -8.38589 41.2032
RightForeArm  3.87442 72.9857 42.886
RightHand  -0.167211 -2.57115 -6.45391
LeftUpLeg  7.46207 3.07935 -0.852933
LeftLeg  6.64454 16.2652 -0.869046
LeftFoot  -6.74075 0.337611 -7.39084
LeftToes  -5.82109e-011 1.10366e-010 -8.03124e-011
183
root  -5.51615 40.088 17.6543 169.164 73.0992 167.685
RightUpLeg  -8.14746 -9.95684 -10.6215
RightLeg  1.5076 0.505779 0.728653
RightFoot  3.97056 -2.40502 17.9602
RightToes  -1.74624e-010 0 -3.6325e-017
Spine  6.20066 -7.50204 -18.9094
Spine1  -5.42698 -10.4876 13.9683
HEad  4.47338 51.7961 0.648068
LeftShoulder1  -0.0196355 2.21912 11.427
LeftArm  -50.3959 -45.1694 -20.4634
LeftForeArm  -49.7709 -54.4509 -18.6455
LeftHand  -0.154284 4.64257 23.2958
RightShoulder  0.160921 -0.386858 -3.79589
RightArm  4.13808 -5.08421 36.5116
RightForeArm  12.7192 75.8162 56.2919
RightHand  -0.106698 -3.58686 -5.81611
LeftUpLeg  7.09161 3.20709 -1.37213
LeftLeg  7.08711 17.439 -0.94259
LeftFoot  -6.46834 0.380236 -8.0197
LeftToes  -5.82109e-011 1.10366e-010 -8.03124e-011
184
root  -5.41577 40.0587 17.5645 167.324 74.2151 165.843
RightUpLeg  -8.6775 -10.0772 -10.7859
RightLeg  2.32802 1.96924 0.749178
RightFoot  3.85649 -2.3426 17.6315
RightToes  -1.74624e-010 0 -3.6325e-017
Spine  6.63556 -7.45439 -18.4085
Spine1  -6.11579 -10.3764 13.9814
HEad  3.78788 52.347 0.0691687
LeftShoulder1  -0.0235699 2.09174 11.5712
LeftArm  -49.1343 -40.9329 -17.1899
LeftForeArm  -42.7616 -56.6865 -20.0619
LeftHand  -0.230913 4.15955 21.2148
RightShoulder  0.0751592 -1.1465 -6.10704
RightArm  2.11818 -2.1676 31.5224
RightForeArm  20.4197 77.068 67.3179
RightHand  -0.0480029 -4.72548 -4.46286
LeftUpLeg  6.74892 4.23935 -1.56203
LeftLeg  8.58594 17.2189 -0.75693
LeftFoot  -6.63441 0.402358 -8.81506
LeftToes  -5.82109e-011 1.10366e-010 -8.03124e-011
185
root  -5.35053 39.9996 17.5236 165.784 74.9856 164.761
RightUpLeg  -8.88432 -10.333 -10.9209
RightLeg  3.53711 3.13968 1.00882
RightFoot  3.61385 -2.25817 17.2741
RightToes  -1.74624e-010 0 -3.6325e-017
Spine  7.70157 -7.37763 -17.866
Spine1  -6.60934 -10.35 13.8497
HEad  3.62528 52.7856 -0.0947551
LeftShoulder1  -0.019568 1.89936 11.0563
LeftArm  -46.2774 -36.123 -14.826
LeftForeArm  -35.8778 -59.8892 -22.5379
LeftHand  -0.269689 3.81677 19.4277
RightShoulder  0.0246855 -1.99076 -7.97398
RightArm  0.124205 -0.0456372 26.5499
RightForeArm  22.8194 77.3815 72.2717
RightHand  -0.020183 -5.66936 -3.05265
LeftUpLeg  6.22297 7.31128 -1.21819
LeftLeg  11.343 14.714 0.0304996
LeftFoot  -7.16591 0.384019 -9.3428
LeftToes  -5.82109e-011 1.10366e-010 -8.03124e-011
186
root  -5.32296 39.9101 17.5404 164.852 75.7061 164.597
RightUpLeg  -9.09189 -10.3149 -10.6777
RightLeg  5.21231 3.74262 1.17351
RightFoot  3.41333 -2.08926 16.2201
RightToes  -1.74624e-010 0 -3.6325e-017
Spine  8.79373 -7.23218 -17.4876
Spine1  -6.07839 -10.406 13.6031
HEad  2.62577 53.164 -0.639099
LeftShoulder1  -0.00919076 1.67994 10.2335
LeftArm  -43.004 -30.6908 -13.0126
LeftForeArm  -27.7852 -64.199 -26.9425
LeftHand  -0.310102 3.47976 18.4647
RightShoulder  0.00562714 -2.92221 -9.05354
RightArm  -1.93736 1.10243 22.0125
RightForeArm  20.374 77.2838 71.6239
RightHand  -0.0154547 -6.32608 -2.06171
LeftUpLeg  5.46171 12.7056 -0.277923
LeftLeg  14.9337 10.0655 1.3561
LeftFoot  -7.70267 0.368579 -10.1382
LeftToes  -5.82109e-011 1.10366e-010 -8.03124e-011
187
root  -5.3403 39.7839 17.6145 164.518 76.7699 165.092
RightUpLeg  -9.82364 -9.61151 -9.77329
RightLeg  7.57636 3.93883 0.935792
RightFoot  3.25942 -1.79386 14.1104
RightToes  -1.74624e-010 0 -3.6325e-017
Spine  9.72346 -6.81084 -17.5383
Spine1  -4.70093 -10.3479 13.5749
HEad  0.596013 53.4066 -1.73319
LeftShoulder1  0.0124139 1.52702 8.93842
LeftArm  -39.8388 -24.933 -11.6631
LeftForeArm  -16.5499 -68.9079 -33.9584
LeftHand  -0.374499 3.02027 18.0754
RightShoulder  0.00212941 -3.83228 -9.42723
RightArm  -4.51969 1.12724 18.6235
RightForeArm  14.1494 76.7361 65.4428
RightHand  -0.0215463 -6.72566 -1.20255
LeftUpLeg  4.15926 17.4268 0.951283
LeftLeg  19.4363 5.34286 2.35735
LeftFoot  -7.9583 0.400372 -11.9047
LeftToes  -5.82109e-011 1.10366e-010 -8.03124e-011
188
root  -5.41132 39.5847 17.7261 165.421 78.0133 166.746
RightUpLeg  -11.2094 -8.42407 -8.49252
RightLeg  10.8162 3.87943 0.695115
RightFoot  2.69692 -1.45643 11.9338
RightToes  -1.74624e-010 0 -3.6325e-017
Spine  10.9091 -6.07918 -18.0407
Spine1  -3.55312 -10.1212 14.1449
HEad  -1.11982 53.3317 -2.48477
LeftShoulder1  0.0489623 1.42129 6.9725
LeftArm  -36.3983 -19.2028 -10.8407
LeftForeArm  -2.17887 -73.0774 -44.2508
LeftHand  -0.439445 2.57037 17.8994
RightShoulder  -0.000240099 -4.56523 -9.32408
RightArm  -7.83354 -0.0803478 16.6639
RightForeArm  5.73198 75.3396 54.732
RightHand  -0.0351621 -6.8174 -0.153021
LeftUpLeg  2.05797 17.3786 2.14457
LeftLeg  25.22 3.77179 2.29629
LeftFoot  -8.20505 0.422168 -13.5936
LeftToes  -5.82109e-011 1.10366e-010 -8.03124e-011
189
root  -5.52759 39.2865 17.8373 168.547 79.0107 170.675
RightUpLeg  -12.8048 -7.83042 -7.20682
RightLeg  14.6973 3.99776 1.00113
RightFoot  1.40244 -1.19562 10.7691
RightToes  -1.74624e-010 0 -3.6325e-017
Spine  12.5087 -5.19004 -18.6515
Spine1  -2.90816 -9.83927 15.2013
HEad  -1.77596 53.0172 -2.42264
LeftShoulder1  0.0943096 1.37949 4.57383
LeftArm  -32.4641 -13.5874 -10.7619
LeftForeArm  15.4264 -76.2534 -59.3492
LeftHand  -0.485492 2.29905 18.08
RightShoulder  -0.0101323 -5.02464 -8.68578
RightArm  -11.5454 -2.45784 15.606
RightForeArm  0.205965 73.363 45.0579
RightHand  -0.0447471 -6.61394 0.772543
LeftUpLeg  -0.156925 16.0117 3.59895
LeftLeg  31.0165 3.56098 2.69248
LeftFoot  -9.09179 0.323961 -13.5897
LeftToes  -5.82109e-011 1.10366e-010 -8.03124e-011
190
root  -5.65749 38.9325 17.9176 174.011 79.6815 177.14
RightUpLeg  -14.0591 -8.66914 -5.76074
RightLeg  18.4549 4.961 1.65623
RightFoot  -0.21831 -1.02059 10.4418
RightToes  -1.74624e-010 0 -3.6325e-017
Spine  14.0117 -4.21601 -19.0689
Spine1  -1.99892 -9.5204 16.2692
HEad  -2.11933 52.9192 -2.19328
LeftShoulder1  0.125276 1.57055 2.22412
LeftArm  -28.4295 -7.94318 -12.0077
LeftForeArm  38.3337 -78.0237 -80.6134
LeftHand  -0.527001 2.10181 18.4808
RightShoulder  -0.0337039 -5.31825 -7.39141
RightArm  -15.4617 -5.55325 15.1919
RightForeArm  0.828248 71.8782 39.5071
RightHand  -0.0366909 -5.88618 0.919655
LeftUpLeg  -1.58175 14.035 5.4328
LeftLeg  35.1418 6.11196 4.97875
LeftFoot  -10.8033 0.124529 -12.6645
LeftToes  -5.82109e-011 1.10366e-010 -8.03124e-011
191
root  -5.78259 38.5615 17.9612 -178.351 79.9533 -174.168
RightUpLeg  -15.0046 -9.59496 -4.1082
RightLeg  21.7919 5.63404 2.25934
RightFoot  -1.6591 -0.875904 10.1806
RightToes  -1.74624e-010 0 -3.6325e-017
Spine  14.9603 -3.22241 -19.2504
Spine1  -0.430642 -9.18956 17.2075
HEad  -2.80737 53.5749 -2.32105
LeftShoulder1  0.114187 2.12306 0.175221
LeftArm  -24.6494 -2.10187 -15.1402
LeftForeArm  64.3452 -77.931 -103.871
LeftHand  -0.581349 1.76226 18.522
RightShoulder  -0.075813 -5.658 -5.56188
RightArm  -20.3143 -8.88876 16.1146
RightForeArm  6.30616 71.2328 36.6675
RightHand  -0.0301472 -4.29873 -0.431608
LeftUpLeg  -2.28612 12.2111 7.63013
LeftLeg  37.6171 9.58309 8.20653
LeftFoot  -13.0178 -0.114464 -12.8863
LeftToes  -5.82109e-011 1.10366e-010 -8.03124e-011
192
root  -5.92942 38.1587 17.981 -169.907 79.1064 -164.852
RightUpLeg  -16.026 -10.4551 -2.3047
RightLeg  25.0015 5.45144 2.54763
RightFoot  -2.89694 -0.74654 9.82119
RightToes  -1.74624e-010 0 -3.6325e-017
Spine  15.6898 -2.40261 -19.3612
Spine1  1.22236 -9.08438 18.4238
HEad  -3.40016 55.0652 -2.41632
LeftShoulder1  0.0662689 2.83535 -1.65279
LeftArm  -20.9816 3.99105 -20.0721
LeftForeArm  85.932 -76.3816 -121.955
LeftHand  -0.652924 1.34861 18.6982
RightShoulder  -0.136391 -5.98371 -3.32931
RightArm  -26.8031 -12.5955 18.9479
RightForeArm  13.1586 71.4997 36.2099
RightHand  -0.100138 -2.50338 -3.53372
LeftUpLeg  -3.31656 10.5257 9.91027
LeftLeg  40.0525 10.8539 10.0011
LeftFoot  -15.5317 -0.440135 -14.4573
LeftToes  -5.82109e-011 1.10366e-010 -8.03124e-011
